G75*
%MOIN*%
%OFA0B0*%
%FSLAX25Y25*%
%IPPOS*%
%LPD*%
%AMOC8*
5,1,8,0,0,1.08239X$1,22.5*
%
%ADD10C,0.04737*%
%ADD11C,0.07400*%
%ADD12C,0.06800*%
%ADD13C,0.04762*%
D10*
X0043837Y0112759D03*
X0043837Y0130081D03*
D11*
X0079900Y0046420D03*
X0089900Y0046420D03*
X0099900Y0046420D03*
D12*
X0231900Y0046420D02*
X0237900Y0046420D01*
X0237900Y0056420D02*
X0231900Y0056420D01*
X0231900Y0066420D02*
X0237900Y0066420D01*
X0237900Y0076420D02*
X0231900Y0076420D01*
X0231900Y0086420D02*
X0237900Y0086420D01*
X0237900Y0096420D02*
X0231900Y0096420D01*
X0231900Y0106420D02*
X0237900Y0106420D01*
X0237900Y0116420D02*
X0231900Y0116420D01*
X0231900Y0131420D02*
X0237900Y0131420D01*
X0237900Y0141420D02*
X0231900Y0141420D01*
X0231900Y0151420D02*
X0237900Y0151420D01*
X0237900Y0161420D02*
X0231900Y0161420D01*
X0231900Y0171420D02*
X0237900Y0171420D01*
X0237900Y0181420D02*
X0231900Y0181420D01*
X0231900Y0191420D02*
X0237900Y0191420D01*
X0237900Y0201420D02*
X0231900Y0201420D01*
D13*
X0188100Y0164920D03*
X0182000Y0146520D03*
X0134000Y0120120D03*
X0119500Y0120520D03*
X0119400Y0144120D03*
X0080500Y0151420D03*
X0064934Y0138054D03*
X0070500Y0130620D03*
X0080500Y0114220D03*
X0064800Y0111220D03*
X0050860Y0084350D03*
X0052420Y0158090D03*
X0161370Y0095530D03*
M02*
