%
M48
M72
T01C0.02362
T02C0.03937
T03C0.04000
%
T01
X50860Y84350
X64800Y111220
X80500Y114220
X70500Y130620
X64934Y138054
X80500Y151420
X52420Y158090
X119400Y144120
X119500Y120520
X134000Y120120
X161370Y95530
X182000Y146520
X188100Y164920
T02
X43837Y130081
X43837Y112759
T03
X79900Y46420
X89900Y46420
X99900Y46420
X234900Y46420
X234900Y56420
X234900Y66420
X234900Y76420
X234900Y86420
X234900Y96420
X234900Y106420
X234900Y116420
X234900Y131420
X234900Y141420
X234900Y151420
X234900Y161420
X234900Y171420
X234900Y181420
X234900Y191420
X234900Y201420
M30
