G75*
%MOIN*%
%OFA0B0*%
%FSLAX25Y25*%
%IPPOS*%
%LPD*%
%AMOC8*
5,1,8,0,0,1.08239X$1,22.5*
%
%ADD10C,0.06600*%
%ADD11C,0.06000*%
%ADD12C,0.03962*%
%ADD13C,0.01200*%
%ADD14C,0.01600*%
D10*
X0079900Y0046420D03*
X0089900Y0046420D03*
X0099900Y0046420D03*
D11*
X0231900Y0046420D02*
X0237900Y0046420D01*
X0237900Y0056420D02*
X0231900Y0056420D01*
X0231900Y0066420D02*
X0237900Y0066420D01*
X0237900Y0076420D02*
X0231900Y0076420D01*
X0231900Y0086420D02*
X0237900Y0086420D01*
X0237900Y0096420D02*
X0231900Y0096420D01*
X0231900Y0106420D02*
X0237900Y0106420D01*
X0237900Y0116420D02*
X0231900Y0116420D01*
X0231900Y0131420D02*
X0237900Y0131420D01*
X0237900Y0141420D02*
X0231900Y0141420D01*
X0231900Y0151420D02*
X0237900Y0151420D01*
X0237900Y0161420D02*
X0231900Y0161420D01*
X0231900Y0171420D02*
X0237900Y0171420D01*
X0237900Y0181420D02*
X0231900Y0181420D01*
X0231900Y0191420D02*
X0237900Y0191420D01*
X0237900Y0201420D02*
X0231900Y0201420D01*
D12*
X0188100Y0164920D03*
X0182000Y0146520D03*
X0134000Y0120120D03*
X0119500Y0120520D03*
X0119400Y0144120D03*
X0080500Y0151420D03*
X0064934Y0138054D03*
X0070500Y0130620D03*
X0080500Y0114220D03*
X0064800Y0111220D03*
X0050860Y0084350D03*
X0052420Y0158090D03*
X0161370Y0095530D03*
D13*
X0188100Y0131320D01*
X0188100Y0164920D01*
X0182000Y0146520D02*
X0165200Y0146520D01*
X0134000Y0128120D01*
X0134000Y0120120D01*
X0119500Y0120520D02*
X0119400Y0144120D01*
X0080500Y0151420D02*
X0080500Y0130620D01*
X0070500Y0130620D01*
X0064934Y0138054D02*
X0064934Y0111220D01*
X0064800Y0111220D01*
X0080500Y0114220D02*
X0080500Y0130620D01*
D14*
X0024012Y0206577D02*
X0023728Y0026420D01*
X0272530Y0026440D01*
X0272502Y0206384D01*
X0024012Y0206577D01*
X0024011Y0205467D02*
X0229304Y0205467D01*
X0229384Y0205525D02*
X0228773Y0205081D01*
X0228239Y0204547D01*
X0227795Y0203936D01*
X0227452Y0203263D01*
X0227218Y0202544D01*
X0227100Y0201798D01*
X0227100Y0201620D01*
X0234700Y0201620D01*
X0234700Y0206220D01*
X0231522Y0206220D01*
X0230776Y0206102D01*
X0230057Y0205868D01*
X0229384Y0205525D01*
X0227760Y0203868D02*
X0024008Y0203868D01*
X0024006Y0202270D02*
X0227175Y0202270D01*
X0227100Y0201220D02*
X0227100Y0201042D01*
X0227218Y0200296D01*
X0227452Y0199577D01*
X0227795Y0198904D01*
X0228239Y0198293D01*
X0228773Y0197759D01*
X0229384Y0197315D01*
X0230057Y0196972D01*
X0230693Y0196765D01*
X0228841Y0195998D01*
X0227322Y0194479D01*
X0226500Y0192494D01*
X0226500Y0190346D01*
X0227322Y0188361D01*
X0228841Y0186842D01*
X0229860Y0186420D01*
X0228841Y0185998D01*
X0227322Y0184479D01*
X0226500Y0182494D01*
X0226500Y0180346D01*
X0227322Y0178361D01*
X0228841Y0176842D01*
X0229860Y0176420D01*
X0228841Y0175998D01*
X0227322Y0174479D01*
X0226500Y0172494D01*
X0226500Y0170346D01*
X0227322Y0168361D01*
X0228841Y0166842D01*
X0229860Y0166420D01*
X0228841Y0165998D01*
X0227322Y0164479D01*
X0226500Y0162494D01*
X0226500Y0160346D01*
X0227322Y0158361D01*
X0228841Y0156842D01*
X0229860Y0156420D01*
X0228841Y0155998D01*
X0227322Y0154479D01*
X0226500Y0152494D01*
X0226500Y0150346D01*
X0227322Y0148361D01*
X0228841Y0146842D01*
X0229860Y0146420D01*
X0228841Y0145998D01*
X0227322Y0144479D01*
X0226500Y0142494D01*
X0226500Y0140346D01*
X0227322Y0138361D01*
X0228841Y0136842D01*
X0229860Y0136420D01*
X0228841Y0135998D01*
X0227322Y0134479D01*
X0226500Y0132494D01*
X0226500Y0130346D01*
X0227322Y0128361D01*
X0228841Y0126842D01*
X0230826Y0126020D01*
X0238974Y0126020D01*
X0240959Y0126842D01*
X0242478Y0128361D01*
X0243300Y0130346D01*
X0243300Y0132494D01*
X0242478Y0134479D01*
X0240959Y0135998D01*
X0239940Y0136420D01*
X0240959Y0136842D01*
X0242478Y0138361D01*
X0243300Y0140346D01*
X0243300Y0142494D01*
X0242478Y0144479D01*
X0240959Y0145998D01*
X0239940Y0146420D01*
X0240959Y0146842D01*
X0242478Y0148361D01*
X0243300Y0150346D01*
X0243300Y0152494D01*
X0242478Y0154479D01*
X0240959Y0155998D01*
X0239940Y0156420D01*
X0240959Y0156842D01*
X0242478Y0158361D01*
X0243300Y0160346D01*
X0243300Y0162494D01*
X0242478Y0164479D01*
X0240959Y0165998D01*
X0239940Y0166420D01*
X0240959Y0166842D01*
X0242478Y0168361D01*
X0243300Y0170346D01*
X0243300Y0172494D01*
X0242478Y0174479D01*
X0240959Y0175998D01*
X0239940Y0176420D01*
X0240959Y0176842D01*
X0242478Y0178361D01*
X0243300Y0180346D01*
X0243300Y0182494D01*
X0242478Y0184479D01*
X0240959Y0185998D01*
X0239940Y0186420D01*
X0240959Y0186842D01*
X0242478Y0188361D01*
X0243300Y0190346D01*
X0243300Y0192494D01*
X0242478Y0194479D01*
X0240959Y0195998D01*
X0239107Y0196765D01*
X0239743Y0196972D01*
X0240416Y0197315D01*
X0241027Y0197759D01*
X0241561Y0198293D01*
X0242005Y0198904D01*
X0242348Y0199577D01*
X0242582Y0200296D01*
X0242700Y0201042D01*
X0242700Y0201220D01*
X0235100Y0201220D01*
X0235100Y0201620D01*
X0234700Y0201620D01*
X0234700Y0201220D01*
X0227100Y0201220D01*
X0227159Y0200671D02*
X0024003Y0200671D01*
X0024001Y0199073D02*
X0227709Y0199073D01*
X0229164Y0197474D02*
X0023998Y0197474D01*
X0023995Y0195876D02*
X0228719Y0195876D01*
X0227239Y0194277D02*
X0023993Y0194277D01*
X0023990Y0192679D02*
X0226577Y0192679D01*
X0226500Y0191080D02*
X0023988Y0191080D01*
X0023985Y0189482D02*
X0226858Y0189482D01*
X0227800Y0187883D02*
X0023983Y0187883D01*
X0023980Y0186285D02*
X0229534Y0186285D01*
X0227530Y0184686D02*
X0023978Y0184686D01*
X0023975Y0183088D02*
X0226746Y0183088D01*
X0226500Y0181489D02*
X0023973Y0181489D01*
X0023970Y0179891D02*
X0226689Y0179891D01*
X0227391Y0178292D02*
X0023968Y0178292D01*
X0023965Y0176694D02*
X0229199Y0176694D01*
X0227938Y0175095D02*
X0023963Y0175095D01*
X0023960Y0173497D02*
X0226915Y0173497D01*
X0226500Y0171898D02*
X0023958Y0171898D01*
X0023955Y0170300D02*
X0226519Y0170300D01*
X0227181Y0168701D02*
X0190420Y0168701D01*
X0190582Y0168634D02*
X0188971Y0169301D01*
X0187229Y0169301D01*
X0185618Y0168634D01*
X0184386Y0167402D01*
X0183719Y0165791D01*
X0183719Y0164049D01*
X0184386Y0162438D01*
X0185100Y0161724D01*
X0185100Y0149616D01*
X0184482Y0150234D01*
X0182871Y0150901D01*
X0181129Y0150901D01*
X0179518Y0150234D01*
X0178804Y0149520D01*
X0165581Y0149520D01*
X0165372Y0149574D01*
X0164989Y0149520D01*
X0164603Y0149520D01*
X0164404Y0149437D01*
X0164190Y0149407D01*
X0163857Y0149211D01*
X0163501Y0149063D01*
X0163348Y0148911D01*
X0132657Y0130811D01*
X0132301Y0130663D01*
X0132148Y0130511D01*
X0131962Y0130401D01*
X0131730Y0130092D01*
X0131457Y0129819D01*
X0131374Y0129620D01*
X0131244Y0129447D01*
X0131148Y0129074D01*
X0131000Y0128717D01*
X0131000Y0128501D01*
X0130946Y0128292D01*
X0131000Y0127909D01*
X0131000Y0123316D01*
X0130286Y0122602D01*
X0129619Y0120991D01*
X0129619Y0119249D01*
X0130286Y0117638D01*
X0131518Y0116406D01*
X0133129Y0115739D01*
X0134871Y0115739D01*
X0136482Y0116406D01*
X0137714Y0117638D01*
X0138381Y0119249D01*
X0138381Y0120991D01*
X0137714Y0122602D01*
X0137000Y0123316D01*
X0137000Y0126406D01*
X0166019Y0143520D01*
X0178804Y0143520D01*
X0179518Y0142806D01*
X0181129Y0142139D01*
X0182871Y0142139D01*
X0184482Y0142806D01*
X0185100Y0143424D01*
X0185100Y0132317D01*
X0160898Y0099911D01*
X0160499Y0099911D01*
X0158888Y0099244D01*
X0157656Y0098012D01*
X0156989Y0096401D01*
X0156989Y0094659D01*
X0157656Y0093048D01*
X0158888Y0091816D01*
X0160499Y0091149D01*
X0162241Y0091149D01*
X0163852Y0091816D01*
X0165084Y0093048D01*
X0165751Y0094659D01*
X0165751Y0096383D01*
X0190374Y0129352D01*
X0190643Y0129621D01*
X0190728Y0129825D01*
X0190861Y0130003D01*
X0190954Y0130372D01*
X0191100Y0130723D01*
X0191100Y0130945D01*
X0191155Y0131160D01*
X0191100Y0131536D01*
X0191100Y0161724D01*
X0191814Y0162438D01*
X0192481Y0164049D01*
X0192481Y0165791D01*
X0191814Y0167402D01*
X0190582Y0168634D01*
X0191938Y0167103D02*
X0228581Y0167103D01*
X0228347Y0165504D02*
X0192481Y0165504D01*
X0192422Y0163906D02*
X0227085Y0163906D01*
X0226500Y0162307D02*
X0191683Y0162307D01*
X0191100Y0160709D02*
X0226500Y0160709D01*
X0227012Y0159110D02*
X0191100Y0159110D01*
X0191100Y0157512D02*
X0228172Y0157512D01*
X0228756Y0155913D02*
X0191100Y0155913D01*
X0191100Y0154315D02*
X0227254Y0154315D01*
X0226592Y0152716D02*
X0191100Y0152716D01*
X0191100Y0151118D02*
X0226500Y0151118D01*
X0226842Y0149519D02*
X0191100Y0149519D01*
X0191100Y0147921D02*
X0227763Y0147921D01*
X0229624Y0146322D02*
X0191100Y0146322D01*
X0191100Y0144723D02*
X0227567Y0144723D01*
X0226761Y0143125D02*
X0191100Y0143125D01*
X0191100Y0141526D02*
X0226500Y0141526D01*
X0226673Y0139928D02*
X0191100Y0139928D01*
X0191100Y0138329D02*
X0227354Y0138329D01*
X0229109Y0136731D02*
X0191100Y0136731D01*
X0191100Y0135132D02*
X0227976Y0135132D01*
X0226931Y0133534D02*
X0191100Y0133534D01*
X0191100Y0131935D02*
X0226500Y0131935D01*
X0226504Y0130337D02*
X0190946Y0130337D01*
X0189916Y0128738D02*
X0227166Y0128738D01*
X0228543Y0127140D02*
X0188722Y0127140D01*
X0187529Y0125541D02*
X0272514Y0125541D01*
X0272515Y0123943D02*
X0186335Y0123943D01*
X0185141Y0122344D02*
X0272515Y0122344D01*
X0272515Y0120746D02*
X0239983Y0120746D01*
X0239743Y0120868D02*
X0239024Y0121102D01*
X0238278Y0121220D01*
X0235100Y0121220D01*
X0235100Y0116620D01*
X0234700Y0116620D01*
X0234700Y0121220D01*
X0231522Y0121220D01*
X0230776Y0121102D01*
X0230057Y0120868D01*
X0229384Y0120525D01*
X0228773Y0120081D01*
X0228239Y0119547D01*
X0227795Y0118936D01*
X0227452Y0118263D01*
X0227218Y0117544D01*
X0227100Y0116798D01*
X0227100Y0116620D01*
X0234700Y0116620D01*
X0234700Y0116220D01*
X0227100Y0116220D01*
X0227100Y0116042D01*
X0227218Y0115296D01*
X0227452Y0114577D01*
X0227795Y0113904D01*
X0228239Y0113293D01*
X0228773Y0112759D01*
X0229384Y0112315D01*
X0230057Y0111972D01*
X0230693Y0111765D01*
X0228841Y0110998D01*
X0227322Y0109479D01*
X0226500Y0107494D01*
X0226500Y0105346D01*
X0227322Y0103361D01*
X0228841Y0101842D01*
X0229860Y0101420D01*
X0228841Y0100998D01*
X0227322Y0099479D01*
X0226500Y0097494D01*
X0226500Y0095346D01*
X0227322Y0093361D01*
X0228841Y0091842D01*
X0229860Y0091420D01*
X0228841Y0090998D01*
X0227322Y0089479D01*
X0226500Y0087494D01*
X0226500Y0085346D01*
X0227322Y0083361D01*
X0228841Y0081842D01*
X0229860Y0081420D01*
X0228841Y0080998D01*
X0227322Y0079479D01*
X0226500Y0077494D01*
X0226500Y0075346D01*
X0227322Y0073361D01*
X0228841Y0071842D01*
X0229860Y0071420D01*
X0228841Y0070998D01*
X0227322Y0069479D01*
X0226500Y0067494D01*
X0226500Y0065346D01*
X0227322Y0063361D01*
X0228841Y0061842D01*
X0229860Y0061420D01*
X0228841Y0060998D01*
X0227322Y0059479D01*
X0226500Y0057494D01*
X0226500Y0055346D01*
X0227322Y0053361D01*
X0228841Y0051842D01*
X0229860Y0051420D01*
X0228841Y0050998D01*
X0227322Y0049479D01*
X0226500Y0047494D01*
X0226500Y0045346D01*
X0227322Y0043361D01*
X0228841Y0041842D01*
X0230826Y0041020D01*
X0238974Y0041020D01*
X0240959Y0041842D01*
X0242478Y0043361D01*
X0243300Y0045346D01*
X0243300Y0047494D01*
X0242478Y0049479D01*
X0240959Y0050998D01*
X0239940Y0051420D01*
X0240959Y0051842D01*
X0242478Y0053361D01*
X0243300Y0055346D01*
X0243300Y0057494D01*
X0242478Y0059479D01*
X0240959Y0060998D01*
X0239940Y0061420D01*
X0240959Y0061842D01*
X0242478Y0063361D01*
X0243300Y0065346D01*
X0243300Y0067494D01*
X0242478Y0069479D01*
X0240959Y0070998D01*
X0239940Y0071420D01*
X0240959Y0071842D01*
X0242478Y0073361D01*
X0243300Y0075346D01*
X0243300Y0077494D01*
X0242478Y0079479D01*
X0240959Y0080998D01*
X0239940Y0081420D01*
X0240959Y0081842D01*
X0242478Y0083361D01*
X0243300Y0085346D01*
X0243300Y0087494D01*
X0242478Y0089479D01*
X0240959Y0090998D01*
X0239940Y0091420D01*
X0240959Y0091842D01*
X0242478Y0093361D01*
X0243300Y0095346D01*
X0243300Y0097494D01*
X0242478Y0099479D01*
X0240959Y0100998D01*
X0239940Y0101420D01*
X0240959Y0101842D01*
X0242478Y0103361D01*
X0243300Y0105346D01*
X0243300Y0107494D01*
X0242478Y0109479D01*
X0240959Y0110998D01*
X0239107Y0111765D01*
X0239743Y0111972D01*
X0240416Y0112315D01*
X0241027Y0112759D01*
X0241561Y0113293D01*
X0242005Y0113904D01*
X0242348Y0114577D01*
X0242582Y0115296D01*
X0242700Y0116042D01*
X0242700Y0116220D01*
X0235100Y0116220D01*
X0235100Y0116620D01*
X0242700Y0116620D01*
X0242700Y0116798D01*
X0242582Y0117544D01*
X0242348Y0118263D01*
X0242005Y0118936D01*
X0241561Y0119547D01*
X0241027Y0120081D01*
X0240416Y0120525D01*
X0239743Y0120868D01*
X0241852Y0119147D02*
X0272515Y0119147D01*
X0272516Y0117549D02*
X0242580Y0117549D01*
X0242685Y0115950D02*
X0272516Y0115950D01*
X0272516Y0114352D02*
X0242233Y0114352D01*
X0241019Y0112753D02*
X0272516Y0112753D01*
X0272517Y0111155D02*
X0240580Y0111155D01*
X0242400Y0109556D02*
X0272517Y0109556D01*
X0272517Y0107958D02*
X0243108Y0107958D01*
X0243300Y0106359D02*
X0272517Y0106359D01*
X0272518Y0104761D02*
X0243058Y0104761D01*
X0242279Y0103162D02*
X0272518Y0103162D01*
X0272518Y0101564D02*
X0240287Y0101564D01*
X0241992Y0099965D02*
X0272518Y0099965D01*
X0272519Y0098367D02*
X0242939Y0098367D01*
X0243300Y0096768D02*
X0272519Y0096768D01*
X0272519Y0095170D02*
X0243227Y0095170D01*
X0242565Y0093571D02*
X0272519Y0093571D01*
X0272520Y0091973D02*
X0241089Y0091973D01*
X0241583Y0090374D02*
X0272520Y0090374D01*
X0272520Y0088776D02*
X0242769Y0088776D01*
X0243300Y0087177D02*
X0272520Y0087177D01*
X0272521Y0085579D02*
X0243300Y0085579D01*
X0242734Y0083980D02*
X0272521Y0083980D01*
X0272521Y0082382D02*
X0241498Y0082382D01*
X0241174Y0080783D02*
X0272521Y0080783D01*
X0272522Y0079185D02*
X0242600Y0079185D01*
X0243262Y0077586D02*
X0272522Y0077586D01*
X0272522Y0075988D02*
X0243300Y0075988D01*
X0242904Y0074389D02*
X0272522Y0074389D01*
X0272523Y0072790D02*
X0241907Y0072790D01*
X0240490Y0071192D02*
X0272523Y0071192D01*
X0272523Y0069593D02*
X0242363Y0069593D01*
X0243093Y0067995D02*
X0272523Y0067995D01*
X0272524Y0066396D02*
X0243300Y0066396D01*
X0243073Y0064798D02*
X0272524Y0064798D01*
X0272524Y0063199D02*
X0242316Y0063199D01*
X0240377Y0061601D02*
X0272524Y0061601D01*
X0272525Y0060002D02*
X0241954Y0060002D01*
X0242923Y0058404D02*
X0272525Y0058404D01*
X0272525Y0056805D02*
X0243300Y0056805D01*
X0243242Y0055207D02*
X0272525Y0055207D01*
X0272526Y0053608D02*
X0242580Y0053608D01*
X0241127Y0052010D02*
X0272526Y0052010D01*
X0272526Y0050411D02*
X0241545Y0050411D01*
X0242754Y0048813D02*
X0272527Y0048813D01*
X0272527Y0047214D02*
X0243300Y0047214D01*
X0243300Y0045616D02*
X0272527Y0045616D01*
X0272527Y0044017D02*
X0242750Y0044017D01*
X0241536Y0042419D02*
X0272528Y0042419D01*
X0272528Y0040820D02*
X0101276Y0040820D01*
X0101034Y0040720D02*
X0103129Y0041588D01*
X0104732Y0043191D01*
X0105600Y0045286D01*
X0105600Y0047554D01*
X0104732Y0049649D01*
X0103129Y0051252D01*
X0101034Y0052120D01*
X0098766Y0052120D01*
X0096671Y0051252D01*
X0095068Y0049649D01*
X0094900Y0049244D01*
X0094732Y0049649D01*
X0093129Y0051252D01*
X0091034Y0052120D01*
X0088766Y0052120D01*
X0086671Y0051252D01*
X0085068Y0049649D01*
X0084900Y0049244D01*
X0084732Y0049649D01*
X0083129Y0051252D01*
X0081034Y0052120D01*
X0078766Y0052120D01*
X0076671Y0051252D01*
X0075068Y0049649D01*
X0074200Y0047554D01*
X0074200Y0045286D01*
X0075068Y0043191D01*
X0076671Y0041588D01*
X0078766Y0040720D01*
X0081034Y0040720D01*
X0083129Y0041588D01*
X0084732Y0043191D01*
X0084900Y0043596D01*
X0085068Y0043191D01*
X0086671Y0041588D01*
X0088766Y0040720D01*
X0091034Y0040720D01*
X0093129Y0041588D01*
X0094732Y0043191D01*
X0094900Y0043596D01*
X0095068Y0043191D01*
X0096671Y0041588D01*
X0098766Y0040720D01*
X0101034Y0040720D01*
X0098524Y0040820D02*
X0091276Y0040820D01*
X0088524Y0040820D02*
X0081276Y0040820D01*
X0078524Y0040820D02*
X0023750Y0040820D01*
X0023748Y0039222D02*
X0272528Y0039222D01*
X0272528Y0037623D02*
X0023745Y0037623D01*
X0023743Y0036025D02*
X0272529Y0036025D01*
X0272529Y0034426D02*
X0023740Y0034426D01*
X0023738Y0032828D02*
X0272529Y0032828D01*
X0272529Y0031229D02*
X0023735Y0031229D01*
X0023733Y0029631D02*
X0272530Y0029631D01*
X0272530Y0028032D02*
X0023730Y0028032D01*
X0023728Y0026434D02*
X0195584Y0026434D01*
X0227050Y0044017D02*
X0105074Y0044017D01*
X0105600Y0045616D02*
X0226500Y0045616D01*
X0226500Y0047214D02*
X0105600Y0047214D01*
X0105078Y0048813D02*
X0227046Y0048813D01*
X0228255Y0050411D02*
X0103970Y0050411D01*
X0101300Y0052010D02*
X0228673Y0052010D01*
X0227220Y0053608D02*
X0023771Y0053608D01*
X0023768Y0052010D02*
X0078500Y0052010D01*
X0081300Y0052010D02*
X0088500Y0052010D01*
X0091300Y0052010D02*
X0098500Y0052010D01*
X0095830Y0050411D02*
X0093970Y0050411D01*
X0085830Y0050411D02*
X0083970Y0050411D01*
X0075830Y0050411D02*
X0023766Y0050411D01*
X0023763Y0048813D02*
X0074722Y0048813D01*
X0074200Y0047214D02*
X0023760Y0047214D01*
X0023758Y0045616D02*
X0074200Y0045616D01*
X0074726Y0044017D02*
X0023755Y0044017D01*
X0023753Y0042419D02*
X0075840Y0042419D01*
X0083960Y0042419D02*
X0085840Y0042419D01*
X0093960Y0042419D02*
X0095840Y0042419D01*
X0103960Y0042419D02*
X0228264Y0042419D01*
X0226558Y0055207D02*
X0023773Y0055207D01*
X0023776Y0056805D02*
X0226500Y0056805D01*
X0226877Y0058404D02*
X0023778Y0058404D01*
X0023781Y0060002D02*
X0227846Y0060002D01*
X0229423Y0061601D02*
X0023783Y0061601D01*
X0023786Y0063199D02*
X0227484Y0063199D01*
X0226727Y0064798D02*
X0023788Y0064798D01*
X0023791Y0066396D02*
X0226500Y0066396D01*
X0226707Y0067995D02*
X0023793Y0067995D01*
X0023796Y0069593D02*
X0227437Y0069593D01*
X0229310Y0071192D02*
X0023798Y0071192D01*
X0023801Y0072790D02*
X0227893Y0072790D01*
X0226896Y0074389D02*
X0023803Y0074389D01*
X0023806Y0075988D02*
X0226500Y0075988D01*
X0226538Y0077586D02*
X0023808Y0077586D01*
X0023811Y0079185D02*
X0227200Y0079185D01*
X0228626Y0080783D02*
X0023814Y0080783D01*
X0023816Y0082382D02*
X0228302Y0082382D01*
X0227066Y0083980D02*
X0023819Y0083980D01*
X0023821Y0085579D02*
X0226500Y0085579D01*
X0226500Y0087177D02*
X0023824Y0087177D01*
X0023826Y0088776D02*
X0227031Y0088776D01*
X0228217Y0090374D02*
X0023829Y0090374D01*
X0023831Y0091973D02*
X0158732Y0091973D01*
X0157439Y0093571D02*
X0023834Y0093571D01*
X0023836Y0095170D02*
X0156989Y0095170D01*
X0157141Y0096768D02*
X0023839Y0096768D01*
X0023841Y0098367D02*
X0158011Y0098367D01*
X0160938Y0099965D02*
X0023844Y0099965D01*
X0023846Y0101564D02*
X0162132Y0101564D01*
X0163326Y0103162D02*
X0023849Y0103162D01*
X0023851Y0104761D02*
X0164520Y0104761D01*
X0165714Y0106359D02*
X0046075Y0106359D01*
X0045183Y0105990D02*
X0047671Y0107021D01*
X0049575Y0108925D01*
X0050605Y0111412D01*
X0050605Y0114105D01*
X0049575Y0116593D01*
X0047671Y0118497D01*
X0045183Y0119527D01*
X0042491Y0119527D01*
X0040003Y0118497D01*
X0038099Y0116593D01*
X0037069Y0114105D01*
X0037069Y0111412D01*
X0038099Y0108925D01*
X0040003Y0107021D01*
X0042491Y0105990D01*
X0045183Y0105990D01*
X0048608Y0107958D02*
X0061866Y0107958D01*
X0062318Y0107506D02*
X0063929Y0106839D01*
X0065671Y0106839D01*
X0067282Y0107506D01*
X0068514Y0108738D01*
X0069181Y0110349D01*
X0069181Y0112091D01*
X0068514Y0113702D01*
X0067934Y0114282D01*
X0067934Y0126990D01*
X0068018Y0126906D01*
X0069629Y0126239D01*
X0071371Y0126239D01*
X0072982Y0126906D01*
X0073696Y0127620D01*
X0077500Y0127620D01*
X0077500Y0117416D01*
X0076786Y0116702D01*
X0076119Y0115091D01*
X0076119Y0113349D01*
X0076786Y0111738D01*
X0078018Y0110506D01*
X0079629Y0109839D01*
X0081371Y0109839D01*
X0082982Y0110506D01*
X0084214Y0111738D01*
X0084881Y0113349D01*
X0084881Y0115091D01*
X0084214Y0116702D01*
X0083500Y0117416D01*
X0083500Y0148224D01*
X0084214Y0148938D01*
X0084881Y0150549D01*
X0084881Y0152291D01*
X0084214Y0153902D01*
X0082982Y0155134D01*
X0081371Y0155801D01*
X0079629Y0155801D01*
X0078018Y0155134D01*
X0076786Y0153902D01*
X0076119Y0152291D01*
X0076119Y0150549D01*
X0076786Y0148938D01*
X0077500Y0148224D01*
X0077500Y0133620D01*
X0073696Y0133620D01*
X0072982Y0134334D01*
X0071371Y0135001D01*
X0069629Y0135001D01*
X0068018Y0134334D01*
X0067934Y0134250D01*
X0067934Y0134858D01*
X0068648Y0135572D01*
X0069315Y0137182D01*
X0069315Y0138925D01*
X0068648Y0140536D01*
X0067416Y0141768D01*
X0065805Y0142435D01*
X0064062Y0142435D01*
X0062452Y0141768D01*
X0061220Y0140536D01*
X0060553Y0138925D01*
X0060553Y0137182D01*
X0061220Y0135572D01*
X0061934Y0134858D01*
X0061934Y0114550D01*
X0061086Y0113702D01*
X0060419Y0112091D01*
X0060419Y0110349D01*
X0061086Y0108738D01*
X0062318Y0107506D01*
X0060747Y0109556D02*
X0049837Y0109556D01*
X0050499Y0111155D02*
X0060419Y0111155D01*
X0060693Y0112753D02*
X0050605Y0112753D01*
X0050503Y0114352D02*
X0061736Y0114352D01*
X0061934Y0115950D02*
X0049841Y0115950D01*
X0048619Y0117549D02*
X0061934Y0117549D01*
X0061934Y0119147D02*
X0046100Y0119147D01*
X0045183Y0123313D02*
X0042491Y0123313D01*
X0040003Y0124343D01*
X0038099Y0126247D01*
X0037069Y0128735D01*
X0037069Y0131428D01*
X0038099Y0133915D01*
X0040003Y0135819D01*
X0042491Y0136850D01*
X0045183Y0136850D01*
X0047671Y0135819D01*
X0049575Y0133915D01*
X0050605Y0131428D01*
X0050605Y0128735D01*
X0049575Y0126247D01*
X0047671Y0124343D01*
X0045183Y0123313D01*
X0046704Y0123943D02*
X0061934Y0123943D01*
X0061934Y0125541D02*
X0048869Y0125541D01*
X0049945Y0127140D02*
X0061934Y0127140D01*
X0061934Y0128738D02*
X0050605Y0128738D01*
X0050605Y0130337D02*
X0061934Y0130337D01*
X0061934Y0131935D02*
X0050395Y0131935D01*
X0049733Y0133534D02*
X0061934Y0133534D01*
X0061659Y0135132D02*
X0048358Y0135132D01*
X0045471Y0136731D02*
X0060740Y0136731D01*
X0060553Y0138329D02*
X0023905Y0138329D01*
X0023902Y0136731D02*
X0042203Y0136731D01*
X0039316Y0135132D02*
X0023899Y0135132D01*
X0023897Y0133534D02*
X0037941Y0133534D01*
X0037279Y0131935D02*
X0023894Y0131935D01*
X0023892Y0130337D02*
X0037069Y0130337D01*
X0037069Y0128738D02*
X0023889Y0128738D01*
X0023887Y0127140D02*
X0037729Y0127140D01*
X0038805Y0125541D02*
X0023884Y0125541D01*
X0023882Y0123943D02*
X0040970Y0123943D01*
X0041574Y0119147D02*
X0023874Y0119147D01*
X0023872Y0117549D02*
X0039055Y0117549D01*
X0037833Y0115950D02*
X0023869Y0115950D01*
X0023867Y0114352D02*
X0037171Y0114352D01*
X0037069Y0112753D02*
X0023864Y0112753D01*
X0023862Y0111155D02*
X0037175Y0111155D01*
X0037837Y0109556D02*
X0023859Y0109556D01*
X0023856Y0107958D02*
X0039066Y0107958D01*
X0041599Y0106359D02*
X0023854Y0106359D01*
X0023877Y0120746D02*
X0061934Y0120746D01*
X0061934Y0122344D02*
X0023879Y0122344D01*
X0023907Y0139928D02*
X0060968Y0139928D01*
X0062211Y0141526D02*
X0023910Y0141526D01*
X0023912Y0143125D02*
X0077500Y0143125D01*
X0077500Y0144723D02*
X0023915Y0144723D01*
X0023917Y0146322D02*
X0077500Y0146322D01*
X0077500Y0147921D02*
X0023920Y0147921D01*
X0023922Y0149519D02*
X0076545Y0149519D01*
X0076119Y0151118D02*
X0023925Y0151118D01*
X0023927Y0152716D02*
X0076295Y0152716D01*
X0077199Y0154315D02*
X0023930Y0154315D01*
X0023932Y0155913D02*
X0185100Y0155913D01*
X0185100Y0154315D02*
X0083801Y0154315D01*
X0084705Y0152716D02*
X0185100Y0152716D01*
X0185100Y0151118D02*
X0084881Y0151118D01*
X0084455Y0149519D02*
X0164601Y0149519D01*
X0161669Y0147921D02*
X0083500Y0147921D01*
X0083500Y0146322D02*
X0158959Y0146322D01*
X0156248Y0144723D02*
X0083500Y0144723D01*
X0083500Y0143125D02*
X0153538Y0143125D01*
X0150827Y0141526D02*
X0083500Y0141526D01*
X0083500Y0139928D02*
X0148117Y0139928D01*
X0145406Y0138329D02*
X0083500Y0138329D01*
X0083500Y0136731D02*
X0142696Y0136731D01*
X0139985Y0135132D02*
X0083500Y0135132D01*
X0083500Y0133534D02*
X0137274Y0133534D01*
X0134564Y0131935D02*
X0083500Y0131935D01*
X0083500Y0130337D02*
X0131914Y0130337D01*
X0131009Y0128738D02*
X0083500Y0128738D01*
X0083500Y0127140D02*
X0131000Y0127140D01*
X0131000Y0125541D02*
X0083500Y0125541D01*
X0083500Y0123943D02*
X0131000Y0123943D01*
X0130179Y0122344D02*
X0083500Y0122344D01*
X0083500Y0120746D02*
X0129619Y0120746D01*
X0129661Y0119147D02*
X0083500Y0119147D01*
X0083500Y0117549D02*
X0130375Y0117549D01*
X0132618Y0115950D02*
X0084525Y0115950D01*
X0084881Y0114352D02*
X0171683Y0114352D01*
X0172877Y0115950D02*
X0135382Y0115950D01*
X0137625Y0117549D02*
X0174071Y0117549D01*
X0175264Y0119147D02*
X0138339Y0119147D01*
X0138381Y0120746D02*
X0176458Y0120746D01*
X0177652Y0122344D02*
X0137821Y0122344D01*
X0137000Y0123943D02*
X0178846Y0123943D01*
X0180040Y0125541D02*
X0137000Y0125541D01*
X0138244Y0127140D02*
X0181234Y0127140D01*
X0182428Y0128738D02*
X0140954Y0128738D01*
X0143665Y0130337D02*
X0183621Y0130337D01*
X0184815Y0131935D02*
X0146375Y0131935D01*
X0149086Y0133534D02*
X0185100Y0133534D01*
X0185100Y0135132D02*
X0151796Y0135132D01*
X0154507Y0136731D02*
X0185100Y0136731D01*
X0185100Y0138329D02*
X0157217Y0138329D01*
X0159928Y0139928D02*
X0185100Y0139928D01*
X0185100Y0141526D02*
X0162638Y0141526D01*
X0165349Y0143125D02*
X0179199Y0143125D01*
X0184801Y0143125D02*
X0185100Y0143125D01*
X0185100Y0157512D02*
X0023935Y0157512D01*
X0023937Y0159110D02*
X0185100Y0159110D01*
X0185100Y0160709D02*
X0023940Y0160709D01*
X0023942Y0162307D02*
X0184517Y0162307D01*
X0183778Y0163906D02*
X0023945Y0163906D01*
X0023947Y0165504D02*
X0183719Y0165504D01*
X0184262Y0167103D02*
X0023950Y0167103D01*
X0023953Y0168701D02*
X0185780Y0168701D01*
X0235100Y0201620D02*
X0235100Y0206220D01*
X0238278Y0206220D01*
X0239024Y0206102D01*
X0239743Y0205868D01*
X0240416Y0205525D01*
X0241027Y0205081D01*
X0241561Y0204547D01*
X0242005Y0203936D01*
X0242348Y0203263D01*
X0242582Y0202544D01*
X0242700Y0201798D01*
X0242700Y0201620D01*
X0235100Y0201620D01*
X0235100Y0202270D02*
X0234700Y0202270D01*
X0234700Y0203868D02*
X0235100Y0203868D01*
X0235100Y0205467D02*
X0234700Y0205467D01*
X0240496Y0205467D02*
X0272502Y0205467D01*
X0272502Y0203868D02*
X0242040Y0203868D01*
X0242625Y0202270D02*
X0272502Y0202270D01*
X0272502Y0200671D02*
X0242641Y0200671D01*
X0242091Y0199073D02*
X0272503Y0199073D01*
X0272503Y0197474D02*
X0240636Y0197474D01*
X0241081Y0195876D02*
X0272503Y0195876D01*
X0272503Y0194277D02*
X0242561Y0194277D01*
X0243223Y0192679D02*
X0272504Y0192679D01*
X0272504Y0191080D02*
X0243300Y0191080D01*
X0242942Y0189482D02*
X0272504Y0189482D01*
X0272504Y0187883D02*
X0242000Y0187883D01*
X0240266Y0186285D02*
X0272505Y0186285D01*
X0272505Y0184686D02*
X0242270Y0184686D01*
X0243054Y0183088D02*
X0272505Y0183088D01*
X0272505Y0181489D02*
X0243300Y0181489D01*
X0243111Y0179891D02*
X0272506Y0179891D01*
X0272506Y0178292D02*
X0242409Y0178292D01*
X0240601Y0176694D02*
X0272506Y0176694D01*
X0272507Y0175095D02*
X0241862Y0175095D01*
X0242885Y0173497D02*
X0272507Y0173497D01*
X0272507Y0171898D02*
X0243300Y0171898D01*
X0243281Y0170300D02*
X0272507Y0170300D01*
X0272508Y0168701D02*
X0242619Y0168701D01*
X0241219Y0167103D02*
X0272508Y0167103D01*
X0272508Y0165504D02*
X0241453Y0165504D01*
X0242715Y0163906D02*
X0272508Y0163906D01*
X0272509Y0162307D02*
X0243300Y0162307D01*
X0243300Y0160709D02*
X0272509Y0160709D01*
X0272509Y0159110D02*
X0242788Y0159110D01*
X0241628Y0157512D02*
X0272509Y0157512D01*
X0272510Y0155913D02*
X0241044Y0155913D01*
X0242546Y0154315D02*
X0272510Y0154315D01*
X0272510Y0152716D02*
X0243208Y0152716D01*
X0243300Y0151118D02*
X0272510Y0151118D01*
X0272511Y0149519D02*
X0242957Y0149519D01*
X0242037Y0147921D02*
X0272511Y0147921D01*
X0272511Y0146322D02*
X0240176Y0146322D01*
X0242233Y0144723D02*
X0272511Y0144723D01*
X0272512Y0143125D02*
X0243039Y0143125D01*
X0243300Y0141526D02*
X0272512Y0141526D01*
X0272512Y0139928D02*
X0243127Y0139928D01*
X0242446Y0138329D02*
X0272512Y0138329D01*
X0272513Y0136731D02*
X0240690Y0136731D01*
X0241824Y0135132D02*
X0272513Y0135132D01*
X0272513Y0133534D02*
X0242869Y0133534D01*
X0243300Y0131935D02*
X0272513Y0131935D01*
X0272514Y0130337D02*
X0243296Y0130337D01*
X0242634Y0128738D02*
X0272514Y0128738D01*
X0272514Y0127140D02*
X0241257Y0127140D01*
X0235100Y0120746D02*
X0234700Y0120746D01*
X0234700Y0119147D02*
X0235100Y0119147D01*
X0235100Y0117549D02*
X0234700Y0117549D01*
X0229817Y0120746D02*
X0183947Y0120746D01*
X0182753Y0119147D02*
X0227948Y0119147D01*
X0227220Y0117549D02*
X0181559Y0117549D01*
X0180365Y0115950D02*
X0227115Y0115950D01*
X0227567Y0114352D02*
X0179171Y0114352D01*
X0177978Y0112753D02*
X0228781Y0112753D01*
X0229220Y0111155D02*
X0176784Y0111155D01*
X0175590Y0109556D02*
X0227399Y0109556D01*
X0226692Y0107958D02*
X0174396Y0107958D01*
X0173202Y0106359D02*
X0226500Y0106359D01*
X0226742Y0104761D02*
X0172008Y0104761D01*
X0170814Y0103162D02*
X0227521Y0103162D01*
X0229513Y0101564D02*
X0169621Y0101564D01*
X0168427Y0099965D02*
X0227808Y0099965D01*
X0226861Y0098367D02*
X0167233Y0098367D01*
X0166039Y0096768D02*
X0226500Y0096768D01*
X0226573Y0095170D02*
X0165751Y0095170D01*
X0165301Y0093571D02*
X0227235Y0093571D01*
X0228711Y0091973D02*
X0164008Y0091973D01*
X0166907Y0107958D02*
X0067734Y0107958D01*
X0068853Y0109556D02*
X0168101Y0109556D01*
X0169295Y0111155D02*
X0083631Y0111155D01*
X0084635Y0112753D02*
X0170489Y0112753D01*
X0077500Y0117549D02*
X0067934Y0117549D01*
X0067934Y0119147D02*
X0077500Y0119147D01*
X0077500Y0120746D02*
X0067934Y0120746D01*
X0067934Y0122344D02*
X0077500Y0122344D01*
X0077500Y0123943D02*
X0067934Y0123943D01*
X0067934Y0125541D02*
X0077500Y0125541D01*
X0077500Y0127140D02*
X0073216Y0127140D01*
X0077500Y0135132D02*
X0068208Y0135132D01*
X0069128Y0136731D02*
X0077500Y0136731D01*
X0077500Y0138329D02*
X0069315Y0138329D01*
X0068900Y0139928D02*
X0077500Y0139928D01*
X0077500Y0141526D02*
X0067657Y0141526D01*
X0067934Y0115950D02*
X0076475Y0115950D01*
X0076119Y0114352D02*
X0067934Y0114352D01*
X0068907Y0112753D02*
X0076365Y0112753D01*
X0077369Y0111155D02*
X0069181Y0111155D01*
M02*
